# xmcd
#
# Track frame offsets:
#	183
#	20058
#	39783
#	52808
#	69583
#	86583
#	105258
#	122995
#	144183
#	163608
#	185958
#	202683
#	219433
#	240183
#	254808
#	269920
#
# Disc length: 3812 seconds
#
# Revision: 0
# Processed by: cddbd v1.5.1PL2 Copyright (c) Steve Scherf et al.
# Submitted via: dBpowerAMP V4.0
#
DISCID=df0ee210
DTITLE=Peter Cornelius - Meine Grossen Erfolge - Peter Cornelius
DYEAR=1990
DGENRE=Other
TTITLE0=Du entschuldige i kenn di
TTITLE1=Mein Gefühl
TTITLE2=Träumer, Tramps und Clowns
TTITLE3=Es ist nie zu spät
TTITLE4=Geh net am Leben vorbei
TTITLE5=Ein Diamant verbrennt
TTITLE6=Streicheleinheiten
TTITLE7=Reif für die Insel
TTITLE8=Der Kaffee ist fertig
TTITLE9=Die Wies´n
TTITLE10=Kindheit
TTITLE11=Heut is Heut
TTITLE12=Wasserblaue Aug´n
TTITLE13=Die Wolk´n
TTITLE14=High Society
TTITLE15=Heinweh nach dir
EXTD=
EXTT0=
EXTT1=
EXTT2=
EXTT3=
EXTT4=
EXTT5=
EXTT6=
EXTT7=
EXTT8=
EXTT9=
EXTT10=
EXTT11=
EXTT12=
EXTT13=
EXTT14=
EXTT15=
PLAYORDER=
